<svg xmlns="http://www.w3.org/2000/svg" xmlns:xlink="http://www.w3.org/1999/xlink" width="500" zoomAndPan="magnify" viewBox="0 0 375 374.999991" height="500" preserveAspectRatio="xMidYMid meet" version="1.0"><defs><g/><clipPath id="483739550d"><path d="M 143.222656 135.851562 L 225.722656 135.851562 L 225.722656 186 L 143.222656 186 Z M 143.222656 135.851562 " clip-rule="nonzero"/></clipPath><clipPath id="8408f16ef5"><rect x="0" width="197" y="0" height="77"/></clipPath></defs><path fill="#ffffff" d="M 181.753906 182.933594 C 179.847656 188.882812 174.277344 193.167969 167.710938 193.167969 C 159.570312 193.167969 152.953125 186.550781 152.953125 178.410156 C 152.953125 176.316406 153.429688 174.269531 154.191406 172.460938 C 153.332031 171.792969 152.476562 171.125 151.714844 170.414062 C 150.523438 172.839844 149.808594 175.554688 149.808594 178.410156 C 149.808594 188.3125 157.808594 196.308594 167.710938 196.308594 C 175.851562 196.308594 182.753906 190.835938 184.894531 183.359375 C 183.800781 183.21875 182.753906 183.074219 181.753906 182.933594 Z M 181.753906 182.933594 " fill-opacity="1" fill-rule="nonzero"/><path fill="#ffffff" d="M 153.523438 167.414062 C 154.238281 168.175781 155 168.890625 155.808594 169.554688 C 158.523438 165.9375 162.804688 163.558594 167.660156 163.558594 C 175.800781 163.558594 182.417969 170.175781 182.417969 178.316406 C 182.417969 179.21875 182.324219 180.074219 182.179688 180.933594 C 183.179688 181.125 184.226562 181.3125 185.277344 181.457031 C 185.464844 180.457031 185.5625 179.410156 185.5625 178.316406 C 185.5625 168.414062 177.5625 160.414062 167.660156 160.414062 C 161.902344 160.464844 156.808594 163.175781 153.523438 167.414062 Z M 153.523438 167.414062 " fill-opacity="1" fill-rule="nonzero"/><g clip-path="url(#483739550d)"><path fill="#ffffff" d="M 196.320312 183.597656 C 168.898438 183.597656 146.621094 171.410156 146.621094 156.367188 C 146.621094 148.179688 153.191406 140.851562 163.617188 135.851562 C 151.238281 140.800781 143.242188 148.800781 143.242188 157.84375 C 143.242188 172.886719 165.472656 185.074219 192.941406 185.074219 C 205.460938 185.074219 216.886719 182.503906 225.644531 178.316406 C 217.410156 181.648438 207.269531 183.597656 196.320312 183.597656 Z M 196.320312 183.597656 " fill-opacity="1" fill-rule="nonzero"/></g><path fill="#ffffff" d="M 212.410156 197.785156 L 212.410156 182.171875 C 211.933594 182.265625 211.503906 182.359375 211.03125 182.457031 Z M 212.410156 197.785156 " fill-opacity="1" fill-rule="nonzero"/><path fill="#ffffff" d="M 204.128906 151.226562 L 186.800781 147.515625 C 185.371094 147.230469 184.132812 146.417969 183.230469 145.277344 C 180.609375 141.898438 176.5625 139.945312 172.28125 139.945312 L 162.566406 139.945312 L 174.136719 141.421875 C 176.277344 141.707031 178.230469 142.847656 179.515625 144.660156 L 182.085938 148.324219 C 182.992188 149.609375 184.324219 150.464844 185.847656 150.800781 L 201.03125 154.035156 C 205.507812 154.988281 208.839844 158.75 209.269531 163.320312 L 210.933594 181.550781 C 211.410156 181.503906 211.933594 181.410156 212.410156 181.363281 L 212.410156 161.414062 C 212.410156 156.511719 208.933594 152.273438 204.128906 151.226562 Z M 204.128906 151.226562 " fill-opacity="1" fill-rule="nonzero"/><path fill="#ffffff" d="M 195.75 155.84375 C 193.414062 155.84375 191.558594 157.75 191.558594 160.035156 C 191.558594 162.367188 193.464844 164.222656 195.75 164.222656 C 198.035156 164.222656 199.9375 162.320312 199.9375 160.035156 C 199.9375 157.75 198.082031 155.84375 195.75 155.84375 Z M 195.75 162.984375 C 194.128906 162.984375 192.84375 161.699219 192.84375 160.082031 C 192.84375 158.464844 194.128906 157.179688 195.75 157.179688 C 197.367188 157.179688 198.652344 158.464844 198.652344 160.082031 C 198.652344 161.699219 197.320312 162.984375 195.75 162.984375 Z M 195.75 162.984375 " fill-opacity="1" fill-rule="nonzero"/><g transform="matrix(1, 0, 0, 1, 73, 175)"><g clip-path="url(#8408f16ef5)"><g fill="#ffffff" fill-opacity="1"><g transform="translate(1.025429, 53.991276)"><g><path d="M 51.546875 5.171875 C 51.554688 5.171875 51.585938 5.171875 51.640625 5.171875 C 51.765625 5.179688 51.890625 5.207031 52.015625 5.25 C 52.140625 5.289062 52.25 5.367188 52.34375 5.484375 C 52.382812 5.515625 52.414062 5.5625 52.4375 5.625 C 52.457031 5.6875 52.453125 5.742188 52.421875 5.796875 C 52.410156 5.859375 52.378906 5.910156 52.328125 5.953125 C 52.285156 6.003906 52.242188 6.03125 52.203125 6.03125 C 51.972656 6.0625 51.734375 6.0625 51.484375 6.03125 C 45.660156 4.820312 39.207031 4.039062 32.125 3.6875 C 25.039062 3.332031 18.503906 3.460938 12.515625 4.078125 C 12.253906 4.085938 11.992188 4.117188 11.734375 4.171875 C 11.515625 4.179688 11.300781 4.195312 11.09375 4.21875 C 10.425781 4.3125 9.851562 4.609375 9.375 5.109375 C 8.289062 6.273438 7.101562 7.304688 5.8125 8.203125 C 4.800781 8.890625 3.679688 9.269531 2.453125 9.34375 C 1.960938 9.375 1.488281 9.296875 1.03125 9.109375 C 0.59375 8.921875 0.3125 8.632812 0.1875 8.25 C 0.0625 7.863281 0.113281 7.457031 0.34375 7.03125 C 0.726562 6.414062 1.359375 5.890625 2.234375 5.453125 C 3.109375 5.015625 4.039062 4.65625 5.03125 4.375 C 6.03125 4.09375 6.875 3.890625 7.5625 3.765625 C 8.476562 3.585938 9.222656 3.140625 9.796875 2.421875 C 12.566406 -0.941406 15.226562 -4.75 17.78125 -9 C 20.34375 -13.257812 22.703125 -17.640625 24.859375 -22.140625 C 27.015625 -26.648438 28.867188 -30.96875 30.421875 -35.09375 C 30.472656 -35.3125 30.5625 -35.5 30.6875 -35.65625 C 30.8125 -35.8125 30.992188 -35.921875 31.234375 -35.984375 C 31.472656 -36.023438 31.675781 -35.976562 31.84375 -35.84375 C 32.007812 -35.71875 32.078125 -35.546875 32.046875 -35.328125 C 31.960938 -34.785156 31.828125 -34.257812 31.640625 -33.75 C 30.160156 -29.832031 28.398438 -25.753906 26.359375 -21.515625 C 24.328125 -17.273438 22.113281 -13.140625 19.71875 -9.109375 C 17.320312 -5.085938 14.851562 -1.445312 12.3125 1.8125 C 11.78125 2.476562 11.617188 2.863281 11.828125 2.96875 C 12.035156 3.082031 12.445312 3.078125 13.0625 2.953125 C 13.195312 2.929688 13.328125 2.914062 13.453125 2.90625 C 18.222656 2.363281 23.171875 2.195312 28.296875 2.40625 C 33.429688 2.625 38.488281 3.078125 43.46875 3.765625 C 45.226562 4.015625 46.945312 4.300781 48.625 4.625 C 49.613281 4.8125 50.585938 4.992188 51.546875 5.171875 Z M 3.171875 8.109375 C 4.628906 7.515625 5.835938 6.582031 6.796875 5.3125 C 5.222656 5.425781 3.828125 5.910156 2.609375 6.765625 C 2.222656 7.054688 1.992188 7.332031 1.921875 7.59375 C 1.859375 7.863281 1.9375 8.0625 2.15625 8.1875 C 2.382812 8.3125 2.722656 8.285156 3.171875 8.109375 Z M 3.171875 8.109375 "/></g></g></g><g fill="#ffffff" fill-opacity="1"><g transform="translate(25.108787, 53.991276)"><g><path d="M 2.0625 -3.078125 L 2.03125 -3.078125 C 0.769531 -3.097656 -0.0546875 -3.378906 -0.453125 -3.921875 C -0.847656 -4.460938 -0.832031 -5.1875 -0.40625 -6.09375 C -0.0390625 -6.78125 0.414062 -7.378906 0.96875 -7.890625 C 1.164062 -8.054688 1.363281 -8.191406 1.5625 -8.296875 C 1.757812 -8.398438 1.984375 -8.453125 2.234375 -8.453125 C 2.378906 -8.484375 2.550781 -8.457031 2.75 -8.375 C 2.8125 -8.363281 2.867188 -8.34375 2.921875 -8.3125 C 3.078125 -8.34375 3.222656 -8.390625 3.359375 -8.453125 C 3.390625 -8.484375 3.4375 -8.507812 3.5 -8.53125 C 3.789062 -8.632812 4.09375 -8.679688 4.40625 -8.671875 C 4.539062 -8.671875 4.675781 -8.671875 4.8125 -8.671875 C 5.320312 -8.585938 5.707031 -8.367188 5.96875 -8.015625 C 6.226562 -7.671875 6.320312 -7.242188 6.25 -6.734375 C 6.207031 -6.429688 6.113281 -6.148438 5.96875 -5.890625 C 4.96875 -4.097656 3.691406 -3.160156 2.140625 -3.078125 Z M 4.125 -7.75 C 3.4375 -7.769531 2.828125 -7.566406 2.296875 -7.140625 C 1.765625 -6.722656 1.367188 -6.238281 1.109375 -5.6875 C 0.847656 -5.144531 0.773438 -4.695312 0.890625 -4.34375 C 1.003906 -4 1.367188 -3.90625 1.984375 -4.0625 C 2.660156 -4.269531 3.257812 -4.660156 3.78125 -5.234375 C 4.3125 -5.804688 4.632812 -6.347656 4.75 -6.859375 C 4.875 -7.378906 4.664062 -7.675781 4.125 -7.75 Z M 4.125 -7.75 "/></g></g></g><g fill="#ffffff" fill-opacity="1"><g transform="translate(32.017633, 53.991276)"><g><path d="M 8.296875 -10.953125 C 8.222656 -10.765625 8.128906 -10.582031 8.015625 -10.40625 C 6.597656 -8.113281 4.992188 -5.984375 3.203125 -4.015625 C 2.960938 -3.734375 2.695312 -3.476562 2.40625 -3.25 C 2.132812 -3.0625 1.847656 -2.925781 1.546875 -2.84375 C 0.691406 -2.695312 0.191406 -3.039062 0.046875 -3.875 C 0.015625 -4.394531 0.015625 -4.910156 0.046875 -5.421875 C 0.046875 -5.660156 0.046875 -5.894531 0.046875 -6.125 C 0.046875 -6.125 0.0625 -6.125 0.09375 -6.125 C 0.09375 -6.28125 0.09375 -6.429688 0.09375 -6.578125 C 0.09375 -6.953125 0.09375 -7.332031 0.09375 -7.71875 C 0.09375 -7.925781 0.0976562 -8.140625 0.109375 -8.359375 C 0.210938 -8.835938 0.453125 -9.082031 0.828125 -9.09375 C 1.242188 -9.082031 1.472656 -8.789062 1.515625 -8.21875 C 1.515625 -8.0625 1.503906 -7.914062 1.484375 -7.78125 C 1.460938 -7.644531 1.453125 -7.519531 1.453125 -7.40625 C 1.421875 -6.5625 1.394531 -5.710938 1.375 -4.859375 C 1.375 -4.660156 1.457031 -4.546875 1.625 -4.515625 C 1.6875 -4.515625 1.738281 -4.523438 1.78125 -4.546875 C 1.832031 -4.578125 1.875 -4.613281 1.90625 -4.65625 C 2.414062 -5.25 2.910156 -5.84375 3.390625 -6.4375 C 3.578125 -6.664062 3.765625 -6.894531 3.953125 -7.125 C 4.160156 -7.382812 4.367188 -7.640625 4.578125 -7.890625 C 5.398438 -8.921875 6.226562 -9.941406 7.0625 -10.953125 C 7.15625 -11.085938 7.265625 -11.203125 7.390625 -11.296875 C 7.523438 -11.390625 7.6875 -11.4375 7.875 -11.4375 C 8.03125 -11.425781 8.164062 -11.367188 8.28125 -11.265625 C 8.3125 -11.234375 8.328125 -11.1875 8.328125 -11.125 C 8.328125 -11.0625 8.316406 -11.003906 8.296875 -10.953125 Z M 8.296875 -10.953125 "/></g></g></g><g fill="#ffffff" fill-opacity="1"><g transform="translate(38.939482, 53.991276)"><g><path d="M 7.421875 -4.984375 C 6.921875 -4.492188 6.332031 -4.070312 5.65625 -3.71875 C 4.988281 -3.375 4.429688 -3.144531 3.984375 -3.03125 C 3.535156 -2.925781 3.070312 -2.863281 2.59375 -2.84375 C 1.820312 -2.8125 1.117188 -2.914062 0.484375 -3.15625 C -0.566406 -3.582031 -0.929688 -4.394531 -0.609375 -5.59375 C -0.304688 -6.625 0.304688 -7.429688 1.234375 -8.015625 C 2.160156 -8.597656 3.117188 -8.878906 4.109375 -8.859375 C 4.109375 -8.859375 4.117188 -8.859375 4.140625 -8.859375 C 4.390625 -8.878906 4.628906 -8.863281 4.859375 -8.8125 C 5.234375 -8.675781 5.472656 -8.453125 5.578125 -8.140625 C 5.679688 -7.828125 5.613281 -7.476562 5.375 -7.09375 C 4.820312 -6.25 4.066406 -5.78125 3.109375 -5.6875 C 2.472656 -5.625 1.863281 -5.65625 1.28125 -5.78125 C 1.164062 -5.800781 1.0625 -5.769531 0.96875 -5.6875 C 0.882812 -5.613281 0.832031 -5.519531 0.8125 -5.40625 C 0.644531 -4.65625 0.878906 -4.175781 1.515625 -3.96875 C 2.296875 -3.695312 3.101562 -3.695312 3.9375 -3.96875 C 4.914062 -4.269531 5.84375 -4.84375 6.71875 -5.6875 C 7.59375 -6.53125 8.097656 -6.921875 8.234375 -6.859375 C 8.367188 -6.804688 8.410156 -6.644531 8.359375 -6.375 C 8.234375 -5.945312 7.921875 -5.484375 7.421875 -4.984375 Z M 1.875 -7.09375 C 1.820312 -7.03125 1.785156 -6.960938 1.765625 -6.890625 C 1.742188 -6.816406 1.769531 -6.75 1.84375 -6.6875 C 2.144531 -6.519531 2.472656 -6.457031 2.828125 -6.5 C 3.191406 -6.550781 3.492188 -6.6875 3.734375 -6.90625 C 3.984375 -7.125 4.09375 -7.394531 4.0625 -7.71875 C 4.03125 -7.832031 3.96875 -7.90625 3.875 -7.9375 C 3.78125 -7.96875 3.6875 -7.972656 3.59375 -7.953125 C 2.945312 -7.835938 2.375 -7.550781 1.875 -7.09375 Z M 1.875 -7.09375 "/></g></g></g><g fill="#ffffff" fill-opacity="1"><g transform="translate(46.511881, 53.991276)"><g><path d="M 6.234375 -7.984375 C 6.160156 -7.390625 5.878906 -7 5.390625 -6.8125 C 4.910156 -6.632812 4.753906 -6.875 4.921875 -7.53125 C 5.097656 -8.195312 4.800781 -8.363281 4.03125 -8.03125 C 3.269531 -7.707031 2.640625 -7.300781 2.140625 -6.8125 C 1.378906 -6.03125 0.703125 -5.1875 0.109375 -4.28125 C 0.0546875 -4.207031 0.0078125 -4.144531 -0.03125 -4.09375 C -0.195312 -3.832031 -0.367188 -3.59375 -0.546875 -3.375 C -0.660156 -3.21875 -0.789062 -3.117188 -0.9375 -3.078125 C -1.09375 -3.035156 -1.25 -3.03125 -1.40625 -3.0625 C -1.550781 -3.070312 -1.660156 -3.125 -1.734375 -3.21875 C -1.816406 -3.320312 -1.828125 -3.4375 -1.765625 -3.5625 C -1.671875 -3.800781 -1.5625 -4.039062 -1.4375 -4.28125 C -0.65625 -5.726562 0.140625 -7.179688 0.953125 -8.640625 C 0.960938 -8.660156 0.96875 -8.675781 0.96875 -8.6875 C 1.082031 -8.914062 1.21875 -9.125 1.375 -9.3125 C 1.550781 -9.507812 1.75 -9.585938 1.96875 -9.546875 C 2.195312 -9.515625 2.351562 -9.382812 2.4375 -9.15625 C 2.53125 -8.84375 2.609375 -8.664062 2.671875 -8.625 C 2.742188 -8.59375 2.90625 -8.625 3.15625 -8.71875 C 3.675781 -8.90625 4.179688 -9.035156 4.671875 -9.109375 C 5.171875 -9.191406 5.578125 -9.175781 5.890625 -9.0625 C 6.203125 -8.945312 6.316406 -8.585938 6.234375 -7.984375 Z M 6.234375 -7.984375 "/></g></g></g><g fill="#ffffff" fill-opacity="1"><g transform="translate(53.017378, 53.991276)"><g><path d="M 9.4375 -6.625 C 9.644531 -6.507812 9.660156 -6.226562 9.484375 -5.78125 C 9.234375 -5.445312 8.960938 -5.132812 8.671875 -4.84375 C 8.390625 -4.5625 8.082031 -4.3125 7.75 -4.09375 C 7.71875 -4.09375 7.703125 -4.082031 7.703125 -4.0625 C 7.472656 -3.90625 7.234375 -3.769531 6.984375 -3.65625 C 4.910156 -2.90625 3.851562 -3.34375 3.8125 -4.96875 C 2.96875 -4.238281 2.40625 -3.789062 2.125 -3.625 C 1.4375 -3.21875 0.691406 -3.035156 -0.109375 -3.078125 C -0.691406 -3.117188 -1.085938 -3.300781 -1.296875 -3.625 C -1.515625 -3.945312 -1.5 -4.390625 -1.25 -4.953125 C -0.863281 -5.828125 -0.320312 -6.601562 0.375 -7.28125 C 1.195312 -8.050781 2.113281 -8.664062 3.125 -9.125 C 3.664062 -9.394531 4.226562 -9.5 4.8125 -9.4375 C 5.40625 -9.40625 5.765625 -9.070312 5.890625 -8.4375 C 5.941406 -8.238281 5.890625 -8.066406 5.734375 -7.921875 C 5.546875 -7.753906 5.328125 -7.71875 5.078125 -7.8125 C 5.054688 -7.8125 5.03125 -7.8125 5 -7.8125 C 4.96875 -7.820312 4.945312 -7.835938 4.9375 -7.859375 C 4.6875 -8.203125 4.429688 -8.347656 4.171875 -8.296875 C 3.910156 -8.242188 3.640625 -8.128906 3.359375 -7.953125 C 2.023438 -7.171875 1.03125 -6.082031 0.375 -4.6875 C 0.34375 -4.625 0.320312 -4.554688 0.3125 -4.484375 C 0.300781 -4.410156 0.320312 -4.351562 0.375 -4.3125 C 0.53125 -4.257812 0.703125 -4.269531 0.890625 -4.34375 C 1.085938 -4.414062 1.28125 -4.519531 1.46875 -4.65625 C 1.65625 -4.800781 1.816406 -4.925781 1.953125 -5.03125 C 1.972656 -5.050781 1.984375 -5.0625 1.984375 -5.0625 C 2.609375 -5.59375 3.226562 -6.132812 3.84375 -6.6875 C 4.113281 -6.976562 4.445312 -7.140625 4.84375 -7.171875 C 5.414062 -7.171875 5.65625 -6.914062 5.5625 -6.40625 C 5.507812 -6.21875 5.453125 -6.023438 5.390625 -5.828125 C 5.160156 -5.003906 5.148438 -4.519531 5.359375 -4.375 C 5.566406 -4.238281 5.882812 -4.238281 6.3125 -4.375 C 6.75 -4.519531 7.179688 -4.796875 7.609375 -5.203125 C 8.035156 -5.609375 8.394531 -5.976562 8.6875 -6.3125 C 8.988281 -6.644531 9.238281 -6.75 9.4375 -6.625 Z M 9.4375 -6.625 "/></g></g></g><g fill="#ffffff" fill-opacity="1"><g transform="translate(61.643675, 53.991276)"><g/></g></g><g fill="#ffffff" fill-opacity="1"><g transform="translate(71.479986, 53.991276)"><g><path d="M 63.28125 -16.40625 C 63.488281 -16.351562 63.648438 -16.257812 63.765625 -16.125 C 63.890625 -16 63.921875 -15.878906 63.859375 -15.765625 C 63.773438 -15.648438 63.6875 -15.578125 63.59375 -15.546875 C 63.5 -15.523438 63.394531 -15.523438 63.28125 -15.546875 C 63.144531 -15.546875 63.003906 -15.550781 62.859375 -15.5625 C 60.785156 -15.625 58.046875 -15.503906 54.640625 -15.203125 C 51.234375 -14.910156 48.492188 -14.617188 46.421875 -14.328125 C 44.804688 -14.117188 43.195312 -13.894531 41.59375 -13.65625 C 41.5625 -13.65625 41.515625 -13.640625 41.453125 -13.609375 C 40.785156 -13.515625 40.175781 -13.269531 39.625 -12.875 C 37.582031 -11.488281 35.472656 -10.226562 33.296875 -9.09375 C 31.117188 -7.96875 28.894531 -6.921875 26.625 -5.953125 C 22.957031 -4.328125 19.207031 -2.910156 15.375 -1.703125 C 14.59375 -1.492188 14.019531 -1.015625 13.65625 -0.265625 C 11.957031 3.117188 10.179688 6.4375 8.328125 9.6875 C 6.691406 12.570312 5.117188 15.492188 3.609375 18.453125 C 3.609375 18.472656 3.597656 18.492188 3.578125 18.515625 C 3.515625 18.671875 3.4375 18.796875 3.34375 18.890625 C 3.1875 19.015625 3.003906 19.0625 2.796875 19.03125 C 2.679688 19.0625 2.566406 19.0625 2.453125 19.03125 C 2.222656 18.9375 2.109375 18.765625 2.109375 18.515625 C 2.128906 18.097656 2.265625 17.707031 2.515625 17.34375 C 2.523438 17.320312 2.53125 17.296875 2.53125 17.265625 C 4.0625 14.523438 5.566406 11.785156 7.046875 9.046875 C 8.523438 6.304688 9.957031 3.523438 11.34375 0.703125 C 11.445312 0.460938 11.554688 0.222656 11.671875 -0.015625 C 11.710938 -0.128906 11.757812 -0.253906 11.8125 -0.390625 C 11.6875 -0.421875 11.566406 -0.453125 11.453125 -0.484375 C 11.234375 -0.441406 11.019531 -0.378906 10.8125 -0.296875 C 10.738281 -0.273438 10.664062 -0.25 10.59375 -0.21875 C 7.925781 0.539062 5.222656 1.191406 2.484375 1.734375 C 0.597656 2.066406 -1.300781 2.304688 -3.21875 2.453125 C -3.3125 2.460938 -3.394531 2.46875 -3.46875 2.46875 C -3.664062 2.488281 -3.859375 2.5 -4.046875 2.5 C -4.785156 2.5 -5.503906 2.382812 -6.203125 2.15625 C -6.722656 1.96875 -7.035156 1.664062 -7.140625 1.25 C -7.242188 0.84375 -7.117188 0.398438 -6.765625 -0.078125 C -6.285156 -0.628906 -5.722656 -1.082031 -5.078125 -1.4375 C -3.597656 -2.363281 -2.046875 -3.117188 -0.421875 -3.703125 C 3.898438 -5.347656 8.289062 -6.789062 12.75 -8.03125 C 12.988281 -8.101562 13.242188 -8.171875 13.515625 -8.234375 C 14.085938 -8.347656 14.617188 -8.515625 15.109375 -8.734375 C 15.609375 -8.960938 15.984375 -9.347656 16.234375 -9.890625 C 17.171875 -12.054688 18.070312 -14.21875 18.9375 -16.375 C 19.800781 -18.539062 20.609375 -20.742188 21.359375 -22.984375 C 21.359375 -23.003906 21.367188 -23.03125 21.390625 -23.0625 C 21.492188 -23.46875 21.644531 -23.847656 21.84375 -24.203125 C 21.914062 -24.328125 22.015625 -24.410156 22.140625 -24.453125 C 22.265625 -24.503906 22.394531 -24.519531 22.53125 -24.5 C 22.625 -24.519531 22.726562 -24.519531 22.84375 -24.5 C 23.125 -24.425781 23.289062 -24.234375 23.34375 -23.921875 C 23.34375 -23.328125 23.234375 -22.753906 23.015625 -22.203125 C 23.015625 -22.179688 23.003906 -22.15625 22.984375 -22.125 C 22.046875 -19.257812 21 -16.441406 19.84375 -13.671875 C 19.53125 -12.910156 19.21875 -12.160156 18.90625 -11.421875 C 18.78125 -11.148438 18.660156 -10.867188 18.546875 -10.578125 C 18.398438 -10.242188 18.335938 -10.015625 18.359375 -9.890625 C 18.390625 -9.765625 18.476562 -9.703125 18.625 -9.703125 C 18.78125 -9.710938 18.96875 -9.757812 19.1875 -9.84375 C 19.257812 -9.851562 19.332031 -9.867188 19.40625 -9.890625 C 20.25 -10.109375 21.09375 -10.320312 21.9375 -10.53125 C 23.457031 -10.914062 24.992188 -11.296875 26.546875 -11.671875 C 30.328125 -12.566406 34.132812 -13.332031 37.96875 -13.96875 C 38.65625 -14.082031 39.253906 -14.347656 39.765625 -14.765625 C 40.859375 -15.585938 41.9375 -16.554688 43 -17.671875 C 44.070312 -18.785156 44.957031 -19.984375 45.65625 -21.265625 C 46.351562 -22.554688 46.664062 -23.878906 46.59375 -25.234375 C 46.53125 -26.597656 45.90625 -27.945312 44.71875 -29.28125 C 43.957031 -30.082031 43.09375 -30.753906 42.125 -31.296875 C 40.070312 -32.390625 37.609375 -33.191406 34.734375 -33.703125 C 31.867188 -34.222656 28.789062 -34.5 25.5 -34.53125 C 22.21875 -34.5625 18.929688 -34.394531 15.640625 -34.03125 C 12.347656 -33.664062 9.265625 -33.160156 6.390625 -32.515625 C 3.515625 -31.867188 1.050781 -31.132812 -1 -30.3125 C -2.78125 -29.613281 -4.472656 -28.742188 -6.078125 -27.703125 C -6.722656 -27.304688 -7.332031 -26.867188 -7.90625 -26.390625 C -8.476562 -25.921875 -8.992188 -25.375 -9.453125 -24.75 C -9.617188 -24.488281 -9.847656 -24.347656 -10.140625 -24.328125 C -10.203125 -24.328125 -10.269531 -24.328125 -10.34375 -24.328125 C -10.363281 -24.328125 -10.382812 -24.328125 -10.40625 -24.328125 C -10.507812 -24.328125 -10.613281 -24.34375 -10.71875 -24.375 C -10.820312 -24.40625 -10.90625 -24.46875 -10.96875 -24.5625 C -11.007812 -24.632812 -11.03125 -24.710938 -11.03125 -24.796875 C -11.03125 -24.878906 -11.019531 -24.953125 -11 -25.015625 C -10.851562 -25.359375 -10.648438 -25.660156 -10.390625 -25.921875 C -10.140625 -26.191406 -9.882812 -26.453125 -9.625 -26.703125 C -8.9375 -27.296875 -8.21875 -27.832031 -7.46875 -28.3125 C -6.71875 -28.789062 -5.945312 -29.238281 -5.15625 -29.65625 C -3.132812 -30.726562 -0.550781 -31.691406 2.59375 -32.546875 C 5.75 -33.410156 9.210938 -34.101562 12.984375 -34.625 C 16.753906 -35.15625 20.550781 -35.441406 24.375 -35.484375 C 28.207031 -35.535156 31.789062 -35.28125 35.125 -34.71875 C 38.46875 -34.164062 41.316406 -33.238281 43.671875 -31.9375 C 44.722656 -31.363281 45.664062 -30.628906 46.5 -29.734375 C 47.664062 -28.421875 48.328125 -27.117188 48.484375 -25.828125 C 48.648438 -24.535156 48.472656 -23.285156 47.953125 -22.078125 C 47.441406 -20.867188 46.734375 -19.710938 45.828125 -18.609375 C 44.921875 -17.515625 43.988281 -16.492188 43.03125 -15.546875 C 42.914062 -15.441406 42.800781 -15.316406 42.6875 -15.171875 C 42.570312 -15.035156 42.523438 -14.921875 42.546875 -14.828125 C 42.566406 -14.734375 42.710938 -14.703125 42.984375 -14.734375 C 46.179688 -15.253906 49.375 -15.644531 52.5625 -15.90625 C 55.75 -16.175781 58.957031 -16.359375 62.1875 -16.453125 C 62.28125 -16.453125 62.367188 -16.453125 62.453125 -16.453125 L 62.46875 -16.453125 C 62.738281 -16.453125 63.007812 -16.4375 63.28125 -16.40625 Z M 12.890625 -2.515625 C 12.953125 -2.679688 13.082031 -2.925781 13.28125 -3.25 C 13.539062 -3.757812 13.816406 -4.328125 14.109375 -4.953125 C 14.410156 -5.578125 14.628906 -6.117188 14.765625 -6.578125 C 14.898438 -7.046875 14.832031 -7.304688 14.5625 -7.359375 C 14.394531 -7.328125 14.234375 -7.285156 14.078125 -7.234375 C 14.046875 -7.234375 14 -7.222656 13.9375 -7.203125 C 13.332031 -7.015625 12.722656 -6.835938 12.109375 -6.671875 C 10.640625 -6.242188 9.164062 -5.789062 7.6875 -5.3125 C 7.625 -5.289062 7.550781 -5.265625 7.46875 -5.234375 C 4.832031 -4.421875 2.234375 -3.492188 -0.328125 -2.453125 C -1.617188 -1.921875 -2.847656 -1.269531 -4.015625 -0.5 C -4.453125 -0.25 -4.816406 0.0820312 -5.109375 0.5 C -5.210938 0.664062 -5.238281 0.820312 -5.1875 0.96875 C -5.144531 1.113281 -5.03125 1.222656 -4.84375 1.296875 C -4.445312 1.429688 -4.039062 1.5 -3.625 1.5 C -3.257812 1.5 -2.894531 1.476562 -2.53125 1.4375 C -2.507812 1.4375 -2.5 1.4375 -2.5 1.4375 C -0.601562 1.25 1.253906 0.941406 3.078125 0.515625 C 5.984375 -0.117188 8.859375 -0.867188 11.703125 -1.734375 C 11.742188 -1.753906 11.773438 -1.765625 11.796875 -1.765625 C 12.015625 -1.816406 12.21875 -1.894531 12.40625 -2 C 12.601562 -2.101562 12.765625 -2.273438 12.890625 -2.515625 Z M 15.3125 -3.015625 C 17.03125 -3.460938 19.367188 -4.289062 22.328125 -5.5 C 25.285156 -6.707031 28.128906 -7.984375 30.859375 -9.328125 C 33.585938 -10.679688 35.445312 -11.796875 36.4375 -12.671875 C 36.3125 -12.671875 36.203125 -12.671875 36.109375 -12.671875 C 36.066406 -12.671875 36.035156 -12.671875 36.015625 -12.671875 C 30.015625 -11.484375 24.078125 -10.070312 18.203125 -8.4375 C 17.679688 -8.289062 17.328125 -7.976562 17.140625 -7.5 C 16.785156 -6.738281 16.4375 -5.984375 16.09375 -5.234375 C 15.820312 -4.679688 15.550781 -4.117188 15.28125 -3.546875 C 15.25 -3.460938 15.226562 -3.375 15.21875 -3.28125 C 15.207031 -3.1875 15.238281 -3.097656 15.3125 -3.015625 Z M 15.3125 -3.015625 "/></g></g></g><g fill="#ffffff" fill-opacity="1"><g transform="translate(107.962815, 53.991276)"><g><path d="M 10.5625 -6.0625 C 10.40625 -5.925781 10.242188 -5.800781 10.078125 -5.6875 C 9.515625 -5.34375 9.007812 -5.066406 8.5625 -4.859375 C 8.125 -4.660156 7.597656 -4.457031 6.984375 -4.25 C 6.085938 -3.988281 5.507812 -4.050781 5.25 -4.4375 C 5 -4.832031 4.957031 -5.375 5.125 -6.0625 C 5.375 -7.050781 5.515625 -7.773438 5.546875 -8.234375 C 5.585938 -8.691406 5.4375 -8.847656 5.09375 -8.703125 C 4.75 -8.566406 4.128906 -8.09375 3.234375 -7.28125 C 1.972656 -6.195312 0.894531 -4.957031 0 -3.5625 C -0.113281 -3.375 -0.25 -3.21875 -0.40625 -3.09375 C -0.570312 -2.976562 -0.78125 -2.921875 -1.03125 -2.921875 C -1.257812 -2.921875 -1.425781 -2.976562 -1.53125 -3.09375 C -1.632812 -3.21875 -1.640625 -3.382812 -1.546875 -3.59375 C -1.035156 -4.71875 -0.507812 -5.835938 0.03125 -6.953125 C 0.945312 -8.878906 1.851562 -10.796875 2.75 -12.703125 C 3.414062 -14.128906 4.070312 -15.5625 4.71875 -17 C 5.125 -17.84375 5.515625 -18.6875 5.890625 -19.53125 C 5.929688 -19.59375 5.972656 -19.664062 6.015625 -19.75 C 6.046875 -19.84375 6.082031 -19.9375 6.125 -20.03125 C 6.175781 -20.125 6.234375 -20.226562 6.296875 -20.34375 C 6.347656 -20.4375 6.445312 -20.515625 6.59375 -20.578125 C 6.738281 -20.640625 6.878906 -20.675781 7.015625 -20.6875 C 7.160156 -20.707031 7.273438 -20.703125 7.359375 -20.671875 C 7.460938 -20.585938 7.519531 -20.503906 7.53125 -20.421875 C 7.550781 -20.335938 7.539062 -20.242188 7.5 -20.140625 C 7.476562 -20.128906 7.46875 -20.101562 7.46875 -20.0625 C 7.289062 -19.550781 7.109375 -19.054688 6.921875 -18.578125 C 5.816406 -15.921875 4.613281 -13.300781 3.3125 -10.71875 C 3.21875 -10.550781 3.109375 -10.34375 2.984375 -10.09375 C 2.785156 -9.75 2.601562 -9.410156 2.4375 -9.078125 C 2.28125 -8.742188 2.226562 -8.519531 2.28125 -8.40625 C 2.34375 -8.289062 2.601562 -8.378906 3.0625 -8.671875 C 3.195312 -8.765625 3.320312 -8.859375 3.4375 -8.953125 C 3.800781 -9.191406 4.160156 -9.421875 4.515625 -9.640625 C 4.828125 -9.847656 5.175781 -9.960938 5.5625 -9.984375 C 6.46875 -10.046875 6.976562 -9.632812 7.09375 -8.75 C 7.132812 -8.394531 7.117188 -8.039062 7.046875 -7.6875 C 6.984375 -7.34375 6.90625 -7.003906 6.8125 -6.671875 C 6.789062 -6.566406 6.769531 -6.46875 6.75 -6.375 C 6.59375 -5.789062 6.632812 -5.453125 6.875 -5.359375 C 7.113281 -5.273438 7.445312 -5.320312 7.875 -5.5 C 8.3125 -5.6875 8.75 -5.910156 9.1875 -6.171875 C 9.488281 -6.328125 9.753906 -6.457031 9.984375 -6.5625 C 10.210938 -6.675781 10.382812 -6.726562 10.5 -6.71875 C 10.707031 -6.6875 10.800781 -6.601562 10.78125 -6.46875 C 10.769531 -6.332031 10.695312 -6.195312 10.5625 -6.0625 Z M 10.5625 -6.0625 "/></g></g></g><g fill="#ffffff" fill-opacity="1"><g transform="translate(117.890211, 53.991276)"><g><path d="M 2.0625 -3.078125 L 2.03125 -3.078125 C 0.769531 -3.097656 -0.0546875 -3.378906 -0.453125 -3.921875 C -0.847656 -4.460938 -0.832031 -5.1875 -0.40625 -6.09375 C -0.0390625 -6.78125 0.414062 -7.378906 0.96875 -7.890625 C 1.164062 -8.054688 1.363281 -8.191406 1.5625 -8.296875 C 1.757812 -8.398438 1.984375 -8.453125 2.234375 -8.453125 C 2.378906 -8.484375 2.550781 -8.457031 2.75 -8.375 C 2.8125 -8.363281 2.867188 -8.34375 2.921875 -8.3125 C 3.078125 -8.34375 3.222656 -8.390625 3.359375 -8.453125 C 3.390625 -8.484375 3.4375 -8.507812 3.5 -8.53125 C 3.789062 -8.632812 4.09375 -8.679688 4.40625 -8.671875 C 4.539062 -8.671875 4.675781 -8.671875 4.8125 -8.671875 C 5.320312 -8.585938 5.707031 -8.367188 5.96875 -8.015625 C 6.226562 -7.671875 6.320312 -7.242188 6.25 -6.734375 C 6.207031 -6.429688 6.113281 -6.148438 5.96875 -5.890625 C 4.96875 -4.097656 3.691406 -3.160156 2.140625 -3.078125 Z M 4.125 -7.75 C 3.4375 -7.769531 2.828125 -7.566406 2.296875 -7.140625 C 1.765625 -6.722656 1.367188 -6.238281 1.109375 -5.6875 C 0.847656 -5.144531 0.773438 -4.695312 0.890625 -4.34375 C 1.003906 -4 1.367188 -3.90625 1.984375 -4.0625 C 2.660156 -4.269531 3.257812 -4.660156 3.78125 -5.234375 C 4.3125 -5.804688 4.632812 -6.347656 4.75 -6.859375 C 4.875 -7.378906 4.664062 -7.675781 4.125 -7.75 Z M 4.125 -7.75 "/></g></g></g><g fill="#ffffff" fill-opacity="1"><g transform="translate(124.799056, 53.991276)"><g><path d="M 8.140625 -6.28125 C 6.972656 -4.914062 5.832031 -3.90625 4.71875 -3.25 C 3.601562 -2.601562 2.410156 -2.390625 1.140625 -2.609375 C -0.128906 -2.828125 -0.648438 -3.679688 -0.421875 -5.171875 C -0.265625 -5.910156 -0.0546875 -6.640625 0.203125 -7.359375 C 0.867188 -9.015625 1.546875 -10.660156 2.234375 -12.296875 C 2.460938 -12.890625 2.703125 -13.484375 2.953125 -14.078125 C 3.015625 -14.210938 3.070312 -14.34375 3.125 -14.46875 C 3.21875 -14.6875 3.3125 -14.910156 3.40625 -15.140625 C 3.550781 -15.515625 3.398438 -15.710938 2.953125 -15.734375 C 2.703125 -15.734375 2.457031 -15.734375 2.21875 -15.734375 C 2.101562 -15.734375 1.972656 -15.734375 1.828125 -15.734375 C 1.703125 -15.710938 1.570312 -15.695312 1.4375 -15.6875 C 1.207031 -15.664062 0.976562 -15.65625 0.75 -15.65625 C 0.53125 -15.65625 0.328125 -15.710938 0.140625 -15.828125 C 0.0859375 -15.847656 0.046875 -15.878906 0.015625 -15.921875 C -0.015625 -15.972656 -0.03125 -16.03125 -0.03125 -16.09375 C -0.0078125 -16.125 0.015625 -16.160156 0.046875 -16.203125 C 0.0859375 -16.253906 0.140625 -16.289062 0.203125 -16.3125 C 0.398438 -16.382812 0.601562 -16.441406 0.8125 -16.484375 C 1.34375 -16.503906 1.875 -16.523438 2.40625 -16.546875 C 2.613281 -16.546875 2.796875 -16.546875 2.953125 -16.546875 C 3.296875 -16.546875 3.550781 -16.554688 3.71875 -16.578125 C 3.894531 -16.609375 4.035156 -16.703125 4.140625 -16.859375 C 4.242188 -17.015625 4.363281 -17.253906 4.5 -17.578125 C 4.582031 -17.742188 4.679688 -17.929688 4.796875 -18.140625 C 5.078125 -18.753906 5.363281 -19.375 5.65625 -20 C 5.78125 -20.289062 5.910156 -20.570312 6.046875 -20.84375 C 6.160156 -21.101562 6.34375 -21.3125 6.59375 -21.46875 C 6.820312 -21.570312 7.023438 -21.5625 7.203125 -21.4375 C 7.253906 -21.40625 7.289062 -21.347656 7.3125 -21.265625 C 7.34375 -21.191406 7.359375 -21.125 7.359375 -21.0625 C 7.359375 -20.71875 7.273438 -20.382812 7.109375 -20.0625 C 7.066406 -19.988281 7.023438 -19.90625 6.984375 -19.8125 C 6.867188 -19.5 6.75 -19.179688 6.625 -18.859375 C 6.375 -18.265625 6.132812 -17.660156 5.90625 -17.046875 C 5.84375 -16.929688 5.835938 -16.832031 5.890625 -16.75 C 5.953125 -16.664062 6.039062 -16.625 6.15625 -16.625 C 6.769531 -16.601562 7.375 -16.59375 7.96875 -16.59375 C 8.269531 -16.59375 8.570312 -16.59375 8.875 -16.59375 C 9.832031 -16.570312 10.210938 -16.4375 10.015625 -16.1875 C 9.890625 -16.039062 9.75 -15.957031 9.59375 -15.9375 C 9.445312 -15.914062 9.296875 -15.914062 9.140625 -15.9375 C 9.046875 -15.9375 8.945312 -15.9375 8.84375 -15.9375 C 7.875 -15.882812 6.914062 -15.847656 5.96875 -15.828125 C 5.519531 -15.828125 5.222656 -15.628906 5.078125 -15.234375 C 4.921875 -14.847656 4.769531 -14.460938 4.625 -14.078125 C 4.40625 -13.578125 4.203125 -13.085938 4.015625 -12.609375 C 3.816406 -12.160156 3.625 -11.707031 3.4375 -11.25 C 2.9375 -10.082031 2.457031 -8.914062 2 -7.75 C 1.71875 -6.976562 1.492188 -6.195312 1.328125 -5.40625 C 0.960938 -3.957031 1.519531 -3.398438 3 -3.734375 C 4.457031 -4.078125 5.988281 -5.128906 7.59375 -6.890625 C 8.28125 -7.328125 8.460938 -7.125 8.140625 -6.28125 Z M 8.140625 -6.28125 "/></g></g></g><g fill="#ffffff" fill-opacity="1"><g transform="translate(132.189301, 53.991276)"><g><path d="M 2.0625 -3.078125 L 2.03125 -3.078125 C 0.769531 -3.097656 -0.0546875 -3.378906 -0.453125 -3.921875 C -0.847656 -4.460938 -0.832031 -5.1875 -0.40625 -6.09375 C -0.0390625 -6.78125 0.414062 -7.378906 0.96875 -7.890625 C 1.164062 -8.054688 1.363281 -8.191406 1.5625 -8.296875 C 1.757812 -8.398438 1.984375 -8.453125 2.234375 -8.453125 C 2.378906 -8.484375 2.550781 -8.457031 2.75 -8.375 C 2.8125 -8.363281 2.867188 -8.34375 2.921875 -8.3125 C 3.078125 -8.34375 3.222656 -8.390625 3.359375 -8.453125 C 3.390625 -8.484375 3.4375 -8.507812 3.5 -8.53125 C 3.789062 -8.632812 4.09375 -8.679688 4.40625 -8.671875 C 4.539062 -8.671875 4.675781 -8.671875 4.8125 -8.671875 C 5.320312 -8.585938 5.707031 -8.367188 5.96875 -8.015625 C 6.226562 -7.671875 6.320312 -7.242188 6.25 -6.734375 C 6.207031 -6.429688 6.113281 -6.148438 5.96875 -5.890625 C 4.96875 -4.097656 3.691406 -3.160156 2.140625 -3.078125 Z M 4.125 -7.75 C 3.4375 -7.769531 2.828125 -7.566406 2.296875 -7.140625 C 1.765625 -6.722656 1.367188 -6.238281 1.109375 -5.6875 C 0.847656 -5.144531 0.773438 -4.695312 0.890625 -4.34375 C 1.003906 -4 1.367188 -3.90625 1.984375 -4.0625 C 2.660156 -4.269531 3.257812 -4.660156 3.78125 -5.234375 C 4.3125 -5.804688 4.632812 -6.347656 4.75 -6.859375 C 4.875 -7.378906 4.664062 -7.675781 4.125 -7.75 Z M 4.125 -7.75 "/></g></g></g><g fill="#ffffff" fill-opacity="1"><g transform="translate(139.098147, 53.991276)"><g><path d="M 11.5 -6.96875 C 11.5625 -6.988281 11.632812 -6.988281 11.71875 -6.96875 C 11.8125 -6.957031 11.878906 -6.921875 11.921875 -6.859375 C 11.972656 -6.765625 11.96875 -6.671875 11.90625 -6.578125 C 11.851562 -6.484375 11.769531 -6.410156 11.65625 -6.359375 C 10.875 -5.972656 10.09375 -5.578125 9.3125 -5.171875 C 8.375 -4.691406 7.441406 -4.210938 6.515625 -3.734375 C 6.367188 -3.679688 6.234375 -3.617188 6.109375 -3.546875 C 5.898438 -3.429688 5.691406 -3.328125 5.484375 -3.234375 C 5.003906 -2.992188 4.6875 -2.628906 4.53125 -2.140625 C 4.113281 -0.953125 3.675781 0.21875 3.21875 1.375 C 2.625 2.925781 1.882812 4.40625 1 5.8125 C 0.507812 6.625 -0.0859375 7.34375 -0.796875 7.96875 C -1.640625 8.757812 -2.601562 9.257812 -3.6875 9.46875 C -5.476562 9.832031 -7.207031 9.710938 -8.875 9.109375 C -9.5625 8.867188 -10.148438 8.476562 -10.640625 7.9375 C -11.316406 7.21875 -11.347656 6.445312 -10.734375 5.625 C -10.460938 5.28125 -10.164062 4.953125 -9.84375 4.640625 C -9.101562 3.972656 -8.300781 3.375 -7.4375 2.84375 C -4.363281 0.875 -1.203125 -0.9375 2.046875 -2.59375 C 2.054688 -2.59375 2.0625 -2.59375 2.0625 -2.59375 C 2.40625 -2.757812 2.742188 -2.941406 3.078125 -3.140625 C 3.128906 -3.179688 3.203125 -3.269531 3.296875 -3.40625 C 3.390625 -3.550781 3.457031 -3.695312 3.5 -3.84375 C 3.550781 -3.988281 3.539062 -4.09375 3.46875 -4.15625 C 3.394531 -4.21875 3.210938 -4.1875 2.921875 -4.0625 C 2.816406 -4.019531 2.710938 -3.972656 2.609375 -3.921875 C 2.359375 -3.796875 2.109375 -3.6875 1.859375 -3.59375 C 0.378906 -3.238281 -0.359375 -3.8125 -0.359375 -5.3125 C -0.328125 -6.21875 -0.0625 -7.03125 0.4375 -7.75 C 0.945312 -8.476562 1.597656 -9.046875 2.390625 -9.453125 C 3.179688 -9.867188 4.035156 -10.03125 4.953125 -9.9375 C 5.054688 -9.9375 5.15625 -9.921875 5.25 -9.890625 C 5.5 -9.859375 5.75 -9.84375 6 -9.84375 C 6.257812 -9.84375 6.523438 -9.898438 6.796875 -10.015625 C 7.078125 -10.117188 7.289062 -10.082031 7.4375 -9.90625 C 7.582031 -9.726562 7.609375 -9.5 7.515625 -9.21875 C 7.253906 -8.675781 7.003906 -8.128906 6.765625 -7.578125 C 6.597656 -7.234375 6.4375 -6.878906 6.28125 -6.515625 C 6.101562 -6.140625 5.929688 -5.75 5.765625 -5.34375 C 5.535156 -4.820312 5.5 -4.546875 5.65625 -4.515625 C 5.820312 -4.492188 6.109375 -4.585938 6.515625 -4.796875 C 6.566406 -4.816406 6.617188 -4.835938 6.671875 -4.859375 C 7.398438 -5.203125 8.132812 -5.546875 8.875 -5.890625 C 9.394531 -6.117188 9.910156 -6.351562 10.421875 -6.59375 C 10.773438 -6.75 11.132812 -6.875 11.5 -6.96875 Z M 2.234375 0.015625 C 2.503906 -0.742188 2.617188 -1.242188 2.578125 -1.484375 C 2.546875 -1.722656 2.378906 -1.785156 2.078125 -1.671875 C 1.785156 -1.566406 1.398438 -1.359375 0.921875 -1.046875 C 0.617188 -0.859375 0.285156 -0.671875 -0.078125 -0.484375 C -2.273438 0.703125 -4.414062 1.972656 -6.5 3.328125 C -7.414062 3.867188 -8.234375 4.519531 -8.953125 5.28125 C -9.710938 6.101562 -9.6875 6.828125 -8.875 7.453125 C -8.394531 7.835938 -7.863281 8.101562 -7.28125 8.25 C -6.695312 8.40625 -6.050781 8.484375 -5.34375 8.484375 C -4.519531 8.546875 -3.753906 8.394531 -3.046875 8.03125 C -2.347656 7.664062 -1.703125 7.117188 -1.109375 6.390625 C -0.753906 5.910156 -0.410156 5.414062 -0.078125 4.90625 C 0.878906 3.34375 1.648438 1.710938 2.234375 0.015625 Z M 1.375 -4.59375 C 1.601562 -4.5 1.929688 -4.582031 2.359375 -4.84375 C 2.785156 -5.101562 3.222656 -5.457031 3.671875 -5.90625 C 4.128906 -6.363281 4.488281 -6.832031 4.75 -7.3125 C 5.019531 -7.789062 5.085938 -8.195312 4.953125 -8.53125 C 4.921875 -8.625 4.867188 -8.707031 4.796875 -8.78125 C 4.648438 -8.945312 4.492188 -9.023438 4.328125 -9.015625 C 4.160156 -9.003906 3.976562 -8.972656 3.78125 -8.921875 C 3.15625 -8.671875 2.597656 -8.238281 2.109375 -7.625 C 1.617188 -7.019531 1.289062 -6.414062 1.125 -5.8125 C 0.96875 -5.21875 1.050781 -4.8125 1.375 -4.59375 Z M 1.375 -4.59375 "/></g></g></g><g fill="#ffffff" fill-opacity="1"><g transform="translate(150.209536, 53.991276)"><g><path d="M 6.234375 -7.984375 C 6.160156 -7.390625 5.878906 -7 5.390625 -6.8125 C 4.910156 -6.632812 4.753906 -6.875 4.921875 -7.53125 C 5.097656 -8.195312 4.800781 -8.363281 4.03125 -8.03125 C 3.269531 -7.707031 2.640625 -7.300781 2.140625 -6.8125 C 1.378906 -6.03125 0.703125 -5.1875 0.109375 -4.28125 C 0.0546875 -4.207031 0.0078125 -4.144531 -0.03125 -4.09375 C -0.195312 -3.832031 -0.367188 -3.59375 -0.546875 -3.375 C -0.660156 -3.21875 -0.789062 -3.117188 -0.9375 -3.078125 C -1.09375 -3.035156 -1.25 -3.03125 -1.40625 -3.0625 C -1.550781 -3.070312 -1.660156 -3.125 -1.734375 -3.21875 C -1.816406 -3.320312 -1.828125 -3.4375 -1.765625 -3.5625 C -1.671875 -3.800781 -1.5625 -4.039062 -1.4375 -4.28125 C -0.65625 -5.726562 0.140625 -7.179688 0.953125 -8.640625 C 0.960938 -8.660156 0.96875 -8.675781 0.96875 -8.6875 C 1.082031 -8.914062 1.21875 -9.125 1.375 -9.3125 C 1.550781 -9.507812 1.75 -9.585938 1.96875 -9.546875 C 2.195312 -9.515625 2.351562 -9.382812 2.4375 -9.15625 C 2.53125 -8.84375 2.609375 -8.664062 2.671875 -8.625 C 2.742188 -8.59375 2.90625 -8.625 3.15625 -8.71875 C 3.675781 -8.90625 4.179688 -9.035156 4.671875 -9.109375 C 5.171875 -9.191406 5.578125 -9.175781 5.890625 -9.0625 C 6.203125 -8.945312 6.316406 -8.585938 6.234375 -7.984375 Z M 6.234375 -7.984375 "/></g></g></g><g fill="#ffffff" fill-opacity="1"><g transform="translate(156.715033, 53.991276)"><g><path d="M 9.4375 -6.625 C 9.644531 -6.507812 9.660156 -6.226562 9.484375 -5.78125 C 9.234375 -5.445312 8.960938 -5.132812 8.671875 -4.84375 C 8.390625 -4.5625 8.082031 -4.3125 7.75 -4.09375 C 7.71875 -4.09375 7.703125 -4.082031 7.703125 -4.0625 C 7.472656 -3.90625 7.234375 -3.769531 6.984375 -3.65625 C 4.910156 -2.90625 3.851562 -3.34375 3.8125 -4.96875 C 2.96875 -4.238281 2.40625 -3.789062 2.125 -3.625 C 1.4375 -3.21875 0.691406 -3.035156 -0.109375 -3.078125 C -0.691406 -3.117188 -1.085938 -3.300781 -1.296875 -3.625 C -1.515625 -3.945312 -1.5 -4.390625 -1.25 -4.953125 C -0.863281 -5.828125 -0.320312 -6.601562 0.375 -7.28125 C 1.195312 -8.050781 2.113281 -8.664062 3.125 -9.125 C 3.664062 -9.394531 4.226562 -9.5 4.8125 -9.4375 C 5.40625 -9.40625 5.765625 -9.070312 5.890625 -8.4375 C 5.941406 -8.238281 5.890625 -8.066406 5.734375 -7.921875 C 5.546875 -7.753906 5.328125 -7.71875 5.078125 -7.8125 C 5.054688 -7.8125 5.03125 -7.8125 5 -7.8125 C 4.96875 -7.820312 4.945312 -7.835938 4.9375 -7.859375 C 4.6875 -8.203125 4.429688 -8.347656 4.171875 -8.296875 C 3.910156 -8.242188 3.640625 -8.128906 3.359375 -7.953125 C 2.023438 -7.171875 1.03125 -6.082031 0.375 -4.6875 C 0.34375 -4.625 0.320312 -4.554688 0.3125 -4.484375 C 0.300781 -4.410156 0.320312 -4.351562 0.375 -4.3125 C 0.53125 -4.257812 0.703125 -4.269531 0.890625 -4.34375 C 1.085938 -4.414062 1.28125 -4.519531 1.46875 -4.65625 C 1.65625 -4.800781 1.816406 -4.925781 1.953125 -5.03125 C 1.972656 -5.050781 1.984375 -5.0625 1.984375 -5.0625 C 2.609375 -5.59375 3.226562 -6.132812 3.84375 -6.6875 C 4.113281 -6.976562 4.445312 -7.140625 4.84375 -7.171875 C 5.414062 -7.171875 5.65625 -6.914062 5.5625 -6.40625 C 5.507812 -6.21875 5.453125 -6.023438 5.390625 -5.828125 C 5.160156 -5.003906 5.148438 -4.519531 5.359375 -4.375 C 5.566406 -4.238281 5.882812 -4.238281 6.3125 -4.375 C 6.75 -4.519531 7.179688 -4.796875 7.609375 -5.203125 C 8.035156 -5.609375 8.394531 -5.976562 8.6875 -6.3125 C 8.988281 -6.644531 9.238281 -6.75 9.4375 -6.625 Z M 9.4375 -6.625 "/></g></g></g><g fill="#ffffff" fill-opacity="1"><g transform="translate(165.34133, 53.991276)"><g><path d="M 10.359375 -6.828125 C 10.171875 -6.753906 9.972656 -6.691406 9.765625 -6.640625 C 9.710938 -6.609375 9.664062 -6.585938 9.625 -6.578125 C 9.414062 -6.492188 9.207031 -6.421875 9 -6.359375 C 8.40625 -6.160156 7.800781 -5.953125 7.1875 -5.734375 C 6.726562 -5.609375 6.367188 -5.320312 6.109375 -4.875 C 5.679688 -4.195312 5.144531 -3.664062 4.5 -3.28125 C 3.863281 -2.894531 3.21875 -2.617188 2.5625 -2.453125 C 1.90625 -2.296875 1.320312 -2.195312 0.8125 -2.15625 C 0.300781 -2.125 -0.0234375 -2.117188 -0.171875 -2.140625 C -0.179688 -2.140625 -0.203125 -2.140625 -0.234375 -2.140625 C -0.441406 -2.003906 -0.648438 -1.742188 -0.859375 -1.359375 C -1.066406 -0.984375 -1.25 -0.644531 -1.40625 -0.34375 C -1.4375 -0.257812 -1.460938 -0.1875 -1.484375 -0.125 C -2.335938 1.59375 -3.1875 3.3125 -4.03125 5.03125 C -4.507812 5.976562 -4.988281 6.929688 -5.46875 7.890625 C -5.625 8.222656 -5.804688 8.546875 -6.015625 8.859375 C -6.203125 9.109375 -6.441406 9.15625 -6.734375 9 C -6.921875 8.863281 -6.96875 8.675781 -6.875 8.4375 C -6.78125 8.1875 -6.675781 7.929688 -6.5625 7.671875 C -5.070312 4.140625 -3.488281 0.648438 -1.8125 -2.796875 C -1.289062 -3.867188 -0.800781 -4.957031 -0.34375 -6.0625 C -0.132812 -6.570312 0.0820312 -7.097656 0.3125 -7.640625 C 0.332031 -7.691406 0.363281 -7.75 0.40625 -7.8125 C 0.519531 -8.09375 0.65625 -8.367188 0.8125 -8.640625 C 0.875 -8.734375 1 -8.789062 1.1875 -8.8125 C 1.382812 -8.84375 1.550781 -8.820312 1.6875 -8.75 C 1.863281 -8.632812 1.953125 -8.460938 1.953125 -8.234375 C 1.953125 -8.117188 1.929688 -8.003906 1.890625 -7.890625 C 1.847656 -7.796875 1.820312 -7.695312 1.8125 -7.59375 C 1.8125 -7.5 1.84375 -7.40625 1.90625 -7.3125 C 2.050781 -7.289062 2.175781 -7.304688 2.28125 -7.359375 C 2.382812 -7.421875 2.484375 -7.492188 2.578125 -7.578125 C 2.671875 -7.648438 2.785156 -7.707031 2.921875 -7.75 C 2.992188 -7.789062 3.070312 -7.828125 3.15625 -7.859375 C 3.570312 -8.046875 3.984375 -8.210938 4.390625 -8.359375 C 4.921875 -8.523438 5.445312 -8.484375 5.96875 -8.234375 C 6.1875 -8.097656 6.351562 -7.929688 6.46875 -7.734375 C 6.582031 -7.535156 6.671875 -7.320312 6.734375 -7.09375 C 6.785156 -6.914062 6.941406 -6.820312 7.203125 -6.8125 C 7.460938 -6.8125 7.75 -6.847656 8.0625 -6.921875 C 8.375 -6.992188 8.660156 -7.066406 8.921875 -7.140625 C 9.140625 -7.203125 9.296875 -7.242188 9.390625 -7.265625 C 9.648438 -7.328125 9.914062 -7.34375 10.1875 -7.3125 C 10.269531 -7.3125 10.34375 -7.296875 10.40625 -7.265625 C 10.46875 -7.242188 10.5 -7.175781 10.5 -7.0625 C 10.5 -7.019531 10.484375 -6.972656 10.453125 -6.921875 C 10.429688 -6.878906 10.398438 -6.847656 10.359375 -6.828125 Z M 4.890625 -5.96875 C 5.066406 -6.082031 5.171875 -6.269531 5.203125 -6.53125 C 5.242188 -6.789062 5.21875 -7.039062 5.125 -7.28125 C 5.082031 -7.363281 5.023438 -7.421875 4.953125 -7.453125 C 4.878906 -7.484375 4.800781 -7.5 4.71875 -7.5 C 4.5625 -7.46875 4.410156 -7.421875 4.265625 -7.359375 C 2.660156 -6.546875 1.363281 -5.398438 0.375 -3.921875 C 0.1875 -3.566406 0.210938 -3.410156 0.453125 -3.453125 C 0.691406 -3.492188 1.046875 -3.640625 1.515625 -3.890625 C 1.992188 -4.148438 2.488281 -4.445312 3 -4.78125 C 3.519531 -5.113281 3.960938 -5.398438 4.328125 -5.640625 C 4.648438 -5.847656 4.835938 -5.957031 4.890625 -5.96875 Z M 4.890625 -5.96875 "/></g></g></g><g fill="#ffffff" fill-opacity="1"><g transform="translate(174.93044, 53.991276)"><g><path d="M 10.5625 -6.0625 C 10.40625 -5.925781 10.242188 -5.800781 10.078125 -5.6875 C 9.515625 -5.34375 9.007812 -5.066406 8.5625 -4.859375 C 8.125 -4.660156 7.597656 -4.457031 6.984375 -4.25 C 6.085938 -3.988281 5.507812 -4.050781 5.25 -4.4375 C 5 -4.832031 4.957031 -5.375 5.125 -6.0625 C 5.375 -7.050781 5.515625 -7.773438 5.546875 -8.234375 C 5.585938 -8.691406 5.4375 -8.847656 5.09375 -8.703125 C 4.75 -8.566406 4.128906 -8.09375 3.234375 -7.28125 C 1.972656 -6.195312 0.894531 -4.957031 0 -3.5625 C -0.113281 -3.375 -0.25 -3.21875 -0.40625 -3.09375 C -0.570312 -2.976562 -0.78125 -2.921875 -1.03125 -2.921875 C -1.257812 -2.921875 -1.425781 -2.976562 -1.53125 -3.09375 C -1.632812 -3.21875 -1.640625 -3.382812 -1.546875 -3.59375 C -1.035156 -4.71875 -0.507812 -5.835938 0.03125 -6.953125 C 0.945312 -8.878906 1.851562 -10.796875 2.75 -12.703125 C 3.414062 -14.128906 4.070312 -15.5625 4.71875 -17 C 5.125 -17.84375 5.515625 -18.6875 5.890625 -19.53125 C 5.929688 -19.59375 5.972656 -19.664062 6.015625 -19.75 C 6.046875 -19.84375 6.082031 -19.9375 6.125 -20.03125 C 6.175781 -20.125 6.234375 -20.226562 6.296875 -20.34375 C 6.347656 -20.4375 6.445312 -20.515625 6.59375 -20.578125 C 6.738281 -20.640625 6.878906 -20.675781 7.015625 -20.6875 C 7.160156 -20.707031 7.273438 -20.703125 7.359375 -20.671875 C 7.460938 -20.585938 7.519531 -20.503906 7.53125 -20.421875 C 7.550781 -20.335938 7.539062 -20.242188 7.5 -20.140625 C 7.476562 -20.128906 7.46875 -20.101562 7.46875 -20.0625 C 7.289062 -19.550781 7.109375 -19.054688 6.921875 -18.578125 C 5.816406 -15.921875 4.613281 -13.300781 3.3125 -10.71875 C 3.21875 -10.550781 3.109375 -10.34375 2.984375 -10.09375 C 2.785156 -9.75 2.601562 -9.410156 2.4375 -9.078125 C 2.28125 -8.742188 2.226562 -8.519531 2.28125 -8.40625 C 2.34375 -8.289062 2.601562 -8.378906 3.0625 -8.671875 C 3.195312 -8.765625 3.320312 -8.859375 3.4375 -8.953125 C 3.800781 -9.191406 4.160156 -9.421875 4.515625 -9.640625 C 4.828125 -9.847656 5.175781 -9.960938 5.5625 -9.984375 C 6.46875 -10.046875 6.976562 -9.632812 7.09375 -8.75 C 7.132812 -8.394531 7.117188 -8.039062 7.046875 -7.6875 C 6.984375 -7.34375 6.90625 -7.003906 6.8125 -6.671875 C 6.789062 -6.566406 6.769531 -6.46875 6.75 -6.375 C 6.59375 -5.789062 6.632812 -5.453125 6.875 -5.359375 C 7.113281 -5.273438 7.445312 -5.320312 7.875 -5.5 C 8.3125 -5.6875 8.75 -5.910156 9.1875 -6.171875 C 9.488281 -6.328125 9.753906 -6.457031 9.984375 -6.5625 C 10.210938 -6.675781 10.382812 -6.726562 10.5 -6.71875 C 10.707031 -6.6875 10.800781 -6.601562 10.78125 -6.46875 C 10.769531 -6.332031 10.695312 -6.195312 10.5625 -6.0625 Z M 10.5625 -6.0625 "/></g></g></g><g fill="#ffffff" fill-opacity="1"><g transform="translate(184.857836, 53.991276)"><g><path d="M 10.21875 -6.78125 C 10.332031 -6.5625 10.144531 -6.222656 9.65625 -5.765625 C 9.164062 -5.316406 8.3125 -4.765625 7.09375 -4.109375 C 6.632812 -3.921875 6.300781 -3.769531 6.09375 -3.65625 C 5.882812 -3.539062 5.734375 -3.394531 5.640625 -3.21875 C 5.546875 -3.050781 5.441406 -2.785156 5.328125 -2.421875 C 5.234375 -2.148438 5.109375 -1.789062 4.953125 -1.34375 C 4.742188 -0.78125 4.535156 -0.207031 4.328125 0.375 C 3.941406 1.582031 3.484375 2.773438 2.953125 3.953125 C 2.429688 5.128906 1.753906 6.15625 0.921875 7.03125 C 0.0859375 7.90625 -0.984375 8.484375 -2.296875 8.765625 C -3.609375 9.023438 -4.878906 9.066406 -6.109375 8.890625 C -7.347656 8.710938 -8.554688 8.367188 -9.734375 7.859375 C -10.210938 7.640625 -10.644531 7.351562 -11.03125 7 C -11.65625 6.351562 -11.703125 5.625 -11.171875 4.8125 C -10.878906 4.414062 -10.546875 4.054688 -10.171875 3.734375 C -9.398438 3.117188 -8.597656 2.554688 -7.765625 2.046875 C -6.210938 1.109375 -4.625 0.25 -3 -0.53125 C -1.382812 -1.3125 0.25 -2.066406 1.90625 -2.796875 C 2.019531 -2.847656 2.148438 -2.90625 2.296875 -2.96875 C 2.742188 -3.175781 3.207031 -3.382812 3.6875 -3.59375 C 4.007812 -3.71875 4.226562 -3.9375 4.34375 -4.25 C 4.382812 -4.363281 4.394531 -4.46875 4.375 -4.5625 C 4.351562 -4.625 4.316406 -4.660156 4.265625 -4.671875 C 4.222656 -4.679688 4.171875 -4.671875 4.109375 -4.640625 C 3.941406 -4.535156 3.773438 -4.425781 3.609375 -4.3125 C 3.515625 -4.257812 3.410156 -4.191406 3.296875 -4.109375 C 2.691406 -3.765625 2.070312 -3.613281 1.4375 -3.65625 C 0.414062 -3.65625 -0.0976562 -4.113281 -0.109375 -5.03125 C -0.128906 -5.769531 -0.00390625 -6.472656 0.265625 -7.140625 C 0.535156 -7.804688 0.925781 -8.4375 1.4375 -9.03125 C 1.488281 -9.09375 1.5625 -9.140625 1.65625 -9.171875 C 1.75 -9.210938 1.84375 -9.242188 1.9375 -9.265625 C 1.957031 -9.265625 1.976562 -9.273438 2 -9.296875 C 2.195312 -9.304688 2.347656 -9.253906 2.453125 -9.140625 C 2.554688 -9.035156 2.578125 -8.894531 2.515625 -8.71875 C 2.398438 -8.476562 2.285156 -8.234375 2.171875 -7.984375 C 2.078125 -7.785156 1.984375 -7.59375 1.890625 -7.40625 C 1.503906 -6.65625 1.328125 -5.875 1.359375 -5.0625 C 1.378906 -4.882812 1.457031 -4.753906 1.59375 -4.671875 C 1.726562 -4.597656 1.882812 -4.601562 2.0625 -4.6875 C 2.570312 -4.894531 3.015625 -5.191406 3.390625 -5.578125 C 4.429688 -6.503906 5.285156 -7.582031 5.953125 -8.8125 C 6.046875 -8.988281 6.15625 -9.132812 6.28125 -9.25 C 6.40625 -9.375 6.570312 -9.445312 6.78125 -9.46875 C 7.050781 -9.488281 7.253906 -9.425781 7.390625 -9.28125 C 7.535156 -9.144531 7.578125 -8.957031 7.515625 -8.71875 C 7.273438 -7.9375 7.019531 -7.164062 6.75 -6.40625 C 6.738281 -6.34375 6.71875 -6.285156 6.6875 -6.234375 C 6.625 -6.054688 6.5625 -5.875 6.5 -5.6875 C 6.4375 -5.5 6.40625 -5.332031 6.40625 -5.1875 C 6.40625 -5.039062 6.46875 -4.96875 6.59375 -4.96875 C 7.0625 -5.0625 7.753906 -5.441406 8.671875 -6.109375 C 9.585938 -6.785156 10.101562 -7.007812 10.21875 -6.78125 Z M 3.390625 -1.5625 C 3.390625 -1.601562 3.40625 -1.640625 3.4375 -1.671875 C 3.488281 -1.773438 3.519531 -1.878906 3.53125 -1.984375 C 3.539062 -2.097656 3.507812 -2.21875 3.4375 -2.34375 C 3.375 -2.34375 3.328125 -2.34375 3.296875 -2.34375 C 3.171875 -2.3125 3.0625 -2.28125 2.96875 -2.25 C 2.78125 -2.175781 2.585938 -2.085938 2.390625 -1.984375 C 0.867188 -1.285156 -0.65625 -0.566406 -2.1875 0.171875 C -3.71875 0.921875 -5.210938 1.71875 -6.671875 2.5625 C -7.566406 3.070312 -8.410156 3.671875 -9.203125 4.359375 C -9.847656 4.929688 -10.15625 5.429688 -10.125 5.859375 C -10.101562 6.296875 -9.726562 6.6875 -9 7.03125 C -7.34375 7.882812 -5.554688 8.234375 -3.640625 8.078125 C -2.335938 7.953125 -1.28125 7.460938 -0.46875 6.609375 C 0.332031 5.765625 0.992188 4.75 1.515625 3.5625 C 2.035156 2.375 2.484375 1.191406 2.859375 0.015625 C 3.023438 -0.535156 3.203125 -1.0625 3.390625 -1.5625 Z M 3.390625 -1.5625 "/></g></g></g></g></g></svg>